<svg viewBox="0 0 42 42" fill="none" xmlns="http://www.w3.org/2000/svg">
<path fill-rule="evenodd" clip-rule="evenodd" d="M20.436 38.5C30.101 38.5 37.936 30.665 37.936 21C37.936 11.335 30.101 3.5 20.436 3.5C10.771 3.5 2.93604 11.335 2.93604 21C2.93604 30.665 10.771 38.5 20.436 38.5ZM20.436 10.5C21.8858 10.5 23.061 11.6753 23.061 13.125V21.875C23.061 23.3247 21.8858 24.5 20.436 24.5C18.9863 24.5 17.811 23.3247 17.811 21.875V13.125C17.811 11.6753 18.9863 10.5 20.436 10.5ZM23.061 28.875C23.061 30.3247 21.8858 31.5 20.436 31.5C18.9863 31.5 17.811 30.3247 17.811 28.875C17.811 27.4253 18.9863 26.25 20.436 26.25C21.8858 26.25 23.061 27.4253 23.061 28.875Z" fill="currentColor"/>
</svg>
