<svg width="20" height="24" viewBox="0 0 20 24" fill="none" xmlns="http://www.w3.org/2000/svg">
<path d="M10 0C8.89453 0 8 0.894531 8 2C8 2.08594 8.01953 2.16797 8.03125 2.25C4.57422 3.13281 2 6.27344 2 10V16.6115C2 17.1779 1.56641 17.6115 1 17.6115H0V19.6115H7.1875C7.07422 19.9279 7 20.2599 7 20.6115C7 22.256 8.35547 23.6115 10 23.6115C11.6445 23.6115 13 22.256 13 20.6115C13 20.2599 12.9258 19.9279 12.8125 19.6115H20V17.6115H19C18.4336 17.6115 18 17.1779 18 16.6115V10.2812C18 6.52344 15.4883 3.17188 11.9688 2.25C11.9805 2.16797 12 2.08594 12 2C12 0.894531 11.1055 0 10 0ZM9.5625 4C9.70703 3.98828 9.85156 4 10 4C10.0625 4 10.125 4 10.1875 4C13.4531 4.09766 16 6.96094 16 10.2812V16.6115C16 16.9631 16.0742 17.2951 16.1875 17.6115H3.8125C3.92578 17.2951 4 16.9631 4 16.6115V10C4 6.82422 6.44531 4.22656 9.5625 4ZM10 19.6115C10.5625 19.6115 11 20.049 11 20.6115C11 21.174 10.5625 21.6115 10 21.6115C9.4375 21.6115 9 21.174 9 20.6115C9 20.049 9.4375 19.6115 10 19.6115Z" fill="currentColor"/>
</svg>
