<svg viewBox="0 0 42 42" fill="none" xmlns="http://www.w3.org/2000/svg">
<path fill-rule="evenodd" clip-rule="evenodd" d="M21 38.5C30.665 38.5 38.5 30.665 38.5 21C38.5 11.335 30.665 3.5 21 3.5C11.335 3.5 3.5 11.335 3.5 21C3.5 30.665 11.335 38.5 21 38.5ZM22.5312 9.625C22.5312 8.65852 21.7478 7.875 20.7812 7.875C19.8148 7.875 19.0312 8.65852 19.0312 9.625V11.7884C18.1163 11.942 17.2007 12.2362 16.3948 12.7399C14.9596 13.6369 14 15.1305 14 17.1719C14 19.2133 14.9596 20.7069 16.3948 21.6039C17.7235 22.4343 19.3504 22.6953 20.7812 22.6953C21.866 22.6953 22.7547 22.906 23.3128 23.2547C23.7643 23.5369 24.0625 23.9301 24.0625 24.7188C24.0625 25.5074 23.7643 25.9006 23.3128 26.1828C22.7547 26.5315 21.866 26.7422 20.7812 26.7422C18.7055 26.7422 17.5266 25.97 17.058 25.4428C16.4159 24.7205 15.3097 24.6554 14.5874 25.2975C13.865 25.9396 13.7999 27.0457 14.442 27.7681C15.3978 28.8434 16.9583 29.7654 19.0312 30.1039V32.2656C19.0312 33.2321 19.8148 34.0156 20.7812 34.0156C21.7478 34.0156 22.5312 33.2321 22.5312 32.2656V30.1022C23.4463 29.9486 24.3618 29.6545 25.1678 29.1508C26.603 28.2538 27.5625 26.7602 27.5625 24.7188C27.5625 22.6773 26.603 21.1837 25.1678 20.2867C23.839 19.4563 22.2121 19.1953 20.7812 19.1953C19.6965 19.1953 18.8078 18.9846 18.2498 18.6359C17.7983 18.3537 17.5 17.9606 17.5 17.1719C17.5 16.3832 17.7983 15.9901 18.2498 15.7079C18.8078 15.3591 19.6965 15.1484 20.7812 15.1484C21.8977 15.1484 22.6032 15.2888 23.1186 15.4949C23.62 15.6955 24.0562 16.0037 24.5751 16.5226C25.2585 17.206 26.3665 17.206 27.0499 16.5226C27.7333 15.8392 27.7333 14.7312 27.0499 14.0477C26.311 13.3088 25.4894 12.6736 24.4185 12.2453C23.8329 12.011 23.2092 11.8531 22.5312 11.7589V9.625Z" fill="currentColor"/>
</svg>
