<svg viewBox="0 0 42 42" fill="none" xmlns="http://www.w3.org/2000/svg">
<path fill-rule="evenodd" clip-rule="evenodd" d="M21 38.6875C30.5284 38.6875 38.25 30.9659 38.25 21.4375C38.25 11.9091 30.5284 4.1875 21 4.1875C11.4716 4.1875 3.75 11.9091 3.75 21.4375C3.75 30.9659 11.4716 38.6875 21 38.6875ZM29.5145 19.527C30.4668 18.5909 30.4813 17.0268 29.5452 16.0745C28.6091 15.1222 27.045 15.1077 26.0927 16.0438L19.5125 22.5182L16.5895 19.6398C15.6372 18.7037 14.0731 18.7182 13.137 19.6705C12.2009 20.6228 12.2154 22.1869 13.1677 23.123L17.6552 27.5419C18.5951 28.4656 20.1424 28.4656 21.0823 27.5419L29.5145 19.527Z" fill="currentColor"/>
</svg>
