<svg width="18" height="18" viewBox="0 0 18 18" fill="none" xmlns="http://www.w3.org/2000/svg">
<path d="M15.75 0C15.1758 0 14.6133 0.222656 14.1797 0.65625L6.75 8.0625L6.58594 8.22656L6.53906 8.46094L6.02344 11.0859L5.78906 12.1875L6.89062 11.9531L9.51562 11.4375L9.75 11.3906L9.91406 11.2266L17.3203 3.79688C18.1846 2.93262 18.1846 1.52051 17.3203 0.65625C16.8867 0.222656 16.3242 0 15.75 0ZM15.75 1.45312C15.9258 1.45312 16.0986 1.54395 16.2656 1.71094C16.5996 2.04492 16.5996 2.4082 16.2656 2.74219L9 10.0078L7.71094 10.2656L7.96875 8.97656L15.2344 1.71094C15.4014 1.54395 15.5742 1.45312 15.75 1.45312ZM0 2.97656V17.9766H15V8.08594L13.5 9.58594V16.4766H1.5V4.47656H8.39062L9.89062 2.97656H0Z" fill="currentColor"/>
</svg>
