<svg viewBox="0 0 9 9" fill="none" xmlns="http://www.w3.org/2000/svg">
<path d="M6.8109 0C6.41827 0 6.03365 0.152244 5.73718 0.448718L0.657051 5.51282L0.544872 5.625L0.512821 5.78526L0.160256 7.58013L0 8.33333L0.753205 8.17308L2.54808 7.82051L2.70833 7.78846L2.82051 7.67628L7.88462 2.59615C8.47556 2.00521 8.47556 1.03966 7.88462 0.448718C7.58814 0.152244 7.20353 0 6.8109 0ZM6.8109 0.99359C6.93109 0.99359 7.04928 1.05569 7.16346 1.16987C7.39183 1.39824 7.39183 1.64663 7.16346 1.875L2.19551 6.84295L1.3141 7.01923L1.49038 6.13782L6.45833 1.16987C6.57252 1.05569 6.69071 0.99359 6.8109 0.99359Z" fill="white"/>
</svg>
