<svg viewBox="0 0 42 42" fill="none" xmlns="http://www.w3.org/2000/svg">
<path d="M38.5 21C38.5 23.202 35.9223 24.388 35.1799 26.329C34.426 28.3001 35.4969 31.0211 34.125 32.5755C32.4618 34.4601 29.478 33.8122 27.1483 34.8425C24.9864 35.798 23.5157 38.5 21 38.5C18.4843 38.5 17.0136 35.798 14.8517 34.8425C12.522 33.8122 9.53824 34.4601 7.875 32.5755C6.50309 31.0211 7.57404 28.3001 6.82014 26.329C6.07775 24.388 3.5 23.202 3.5 21C3.5 18.798 6.07775 17.612 6.82014 15.671C7.48921 13.9217 6.25993 11.3861 7.42236 9.95842C8.96871 8.05919 10.9057 8.66162 13.1107 7.54604C15.4812 6.34677 18.1617 3.5 21 3.5C23.8383 3.5 26.5188 6.34677 28.8893 7.54604C31.0943 8.66162 33.0313 8.05919 34.5777 9.95842C35.7401 11.3861 34.5108 13.9217 35.1799 15.671C35.9223 17.612 38.5 18.798 38.5 21Z" fill="currentColor"/>
<path fill-rule="evenodd" clip-rule="evenodd" d="M28.2829 13.717C28.7292 14.1633 28.7292 14.8867 28.2829 15.333L15.3325 28.2834C14.8863 28.7297 14.1628 28.7297 13.7165 28.2834C13.2703 27.8372 13.2703 27.1137 13.7165 26.6674L26.6669 13.717C27.1132 13.2708 27.8367 13.2708 28.2829 13.717Z" fill="white"/>
<path fill-rule="evenodd" clip-rule="evenodd" d="M25.5706 24.4284C24.9395 24.4284 24.4279 24.94 24.4279 25.5711C24.4279 26.2022 24.9395 26.7138 25.5706 26.7138C26.2017 26.7138 26.7133 26.2022 26.7133 25.5711C26.7133 24.94 26.2017 24.4284 25.5706 24.4284ZM22.1426 25.5711C22.1426 23.6778 23.6774 22.1431 25.5706 22.1431C27.4639 22.1431 28.9987 23.6778 28.9987 25.5711C28.9987 27.4644 27.4639 28.9992 25.5706 28.9992C23.6774 28.9992 22.1426 27.4644 22.1426 25.5711Z" fill="white"/>
<path fill-rule="evenodd" clip-rule="evenodd" d="M16.429 15.2868C15.7979 15.2868 15.2863 15.7984 15.2863 16.4295C15.2863 17.0606 15.7979 17.5722 16.429 17.5722C17.0601 17.5722 17.5717 17.0606 17.5717 16.4295C17.5717 15.7984 17.0601 15.2868 16.429 15.2868ZM13.001 16.4295C13.001 14.5362 14.5358 13.0015 16.429 13.0015C18.3223 13.0015 19.8571 14.5362 19.8571 16.4295C19.8571 18.3228 18.3223 19.8576 16.429 19.8576C14.5358 19.8576 13.001 18.3228 13.001 16.4295Z" fill="white"/>
</svg>
