<svg viewBox="0 0 42 42" fill="none" xmlns="http://www.w3.org/2000/svg">
<path fill-rule="evenodd" clip-rule="evenodd" d="M12.0725 3.83838C10.118 3.83838 8.47904 5.31439 8.27515 7.25821L5.27124 33.944C5.0348 36.1982 6.80228 38.1607 9.06855 38.1607H32.9314C35.1977 38.1607 36.9652 36.1982 36.7288 33.944L33.7248 7.25821C33.521 5.31439 31.882 3.83838 29.9275 3.83838H12.0725ZM16.2273 7.65654C16.2273 7.12935 15.7999 6.702 15.2727 6.702C14.7456 6.702 14.3182 7.12935 14.3182 7.65654C14.3182 11.3468 17.3097 14.3383 21 14.3383C24.6903 14.3383 27.6818 11.3468 27.6818 7.65654C27.6818 7.12935 27.2544 6.702 26.7272 6.702C26.2001 6.702 25.7727 7.12935 25.7727 7.65654C25.7727 10.2924 23.6359 12.4292 21 12.4292C18.3641 12.4292 16.2273 10.2924 16.2273 7.65654Z" fill="currentColor"/>
</svg>
