<svg width="17" height="18" viewBox="0 0 17 18" fill="none" xmlns="http://www.w3.org/2000/svg">
<path d="M6.75 0C6.35742 0 5.95605 0.137695 5.67188 0.421875C5.3877 0.706055 5.25 1.10742 5.25 1.5V2.25H0V3.75H0.820312L2.25 17.3203L2.32031 18H14.1797L14.25 17.3203L15.6797 3.75H16.5V2.25H11.25V1.5C11.25 1.10742 11.1123 0.706055 10.8281 0.421875C10.5439 0.137695 10.1426 0 9.75 0H6.75ZM6.75 1.5H9.75V2.25H6.75V1.5ZM2.34375 3.75H14.1562L12.8203 16.5H3.67969L2.34375 3.75ZM5.25 6V14.25H6.75V6H5.25ZM7.5 6V14.25H9V6H7.5ZM9.75 6V14.25H11.25V6H9.75Z" fill="currentColor"/>
</svg>
