<svg width="32" height="32" viewBox="0 0 32 32" fill="none" xmlns="http://www.w3.org/2000/svg">
<path fill-rule="evenodd" clip-rule="evenodd" d="M16 29.5C23.4558 29.5 29.5 23.4558 29.5 16C29.5 8.54415 23.4558 2.5 16 2.5C8.54415 2.5 2.5 8.54415 2.5 16C2.5 23.4558 8.54415 29.5 16 29.5ZM22.8206 14.0681C23.6176 13.2836 23.6277 12.0014 22.8431 11.2044C22.0586 10.4074 20.7764 10.3973 19.9794 11.1819L14.2 16.871L12.0206 14.7256C11.2236 13.9411 9.94144 13.9512 9.15688 14.7482C8.37233 15.5452 8.38242 16.8273 9.17943 17.6119L12.7794 21.1556C13.5676 21.9315 14.8324 21.9315 15.6206 21.1556L22.8206 14.0681Z" fill="currentColor"/>
</svg>
